<svg width="203" height="44" viewBox="0 0 203 44" fill="none" xmlns="http://www.w3.org/2000/svg">
<path d="M19.0799 34.9998C17.7942 34.9998 16.5085 34.7609 15.3189 34.2693C12.926 33.2861 10.8716 31.329 9.52641 28.7609C8.92245 27.6077 8.46033 26.3489 8.1309 24.9615C6.44256 24.5894 4.75879 24.0289 3.12536 23.2754C2.15078 22.8298 1.72527 21.6721 2.16909 20.6935C2.61291 19.7149 3.76592 19.2877 4.74049 19.7333C5.6693 20.1606 6.61642 20.5143 7.56354 20.7992C7.44 18.2999 7.71911 16.1728 8.41915 14.3122C9.42117 11.6476 11.3291 9.5664 13.6535 8.59702C17.1445 7.14526 21.4088 8.39488 23.5776 11.5051C25.7418 14.6062 25.4581 19.0626 22.9142 21.8604C21.6696 23.2341 19.9173 24.2402 17.7119 24.8512C16.019 25.3198 14.1934 25.5266 12.3174 25.476C12.5005 25.9952 12.7155 26.4822 12.958 26.9462C13.8777 28.7058 15.2366 30.0289 16.7876 30.6629C18.5126 31.375 20.5853 31.228 22.1958 30.2816C23.8064 29.3352 24.9457 27.594 25.1744 25.7333C25.3071 24.6675 26.2726 23.9094 27.3341 24.0381C28.3956 24.1713 29.1505 25.1407 29.0224 26.2065C28.6518 29.2433 26.785 32.0917 24.1541 33.6399C22.6305 34.5358 20.8506 34.9952 19.0754 34.9952L19.0799 34.9998ZM11.5076 21.5434C13.3286 21.6904 15.0856 21.5434 16.687 21.1024C18.1786 20.6889 19.3133 20.0641 20.0591 19.2417C21.3631 17.8038 21.5232 15.3321 20.4114 13.7379C19.2996 12.1437 16.9341 11.45 15.1451 12.1943C13.8228 12.741 12.6697 14.0457 12.0521 15.6858C11.4984 17.1652 11.3063 18.9523 11.4755 21.1575C11.4847 21.2862 11.4984 21.4194 11.5076 21.5434Z" fill="#242A30"/>
<path d="M42.694 21.9526C42.4195 21.6126 42.4195 21.1256 42.694 20.7902L48.9898 13.0812C49.3147 12.7366 49.4748 12.3231 49.4748 11.8454C49.4748 11.3262 49.2735 10.876 48.8754 10.4947C48.4773 10.1133 48.0152 9.92499 47.4982 9.92499C46.9812 9.92499 46.4962 10.1639 46.1073 10.6417L39.7931 18.4794L33.479 10.6417C33.0672 10.1639 32.5914 9.92499 32.0561 9.92499C31.5207 9.92499 31.0861 10.1133 30.6972 10.4947C30.3082 10.876 30.1161 11.3216 30.1161 11.8454C30.1161 12.3231 30.2762 12.732 30.6011 13.0812L36.8923 20.7902C37.1668 21.1302 37.1668 21.6172 36.8923 21.9571L30.3082 30.0245C29.9834 30.415 29.8232 30.8285 29.8232 31.2604C29.8232 31.7795 30.0246 32.2297 30.4226 32.6111C30.8207 32.9924 31.2828 33.1807 31.7998 33.1807C32.3169 33.1807 32.8019 32.951 33.1908 32.4962L39.7977 24.3002L46.3726 32.4962C46.7844 32.974 47.2557 33.2129 47.7956 33.2129C48.3355 33.2129 48.7702 33.0199 49.1728 32.6294C49.5709 32.2389 49.7722 31.7841 49.7722 31.265C49.7722 30.8515 49.5983 30.4426 49.2552 30.0291L42.6986 21.9617L42.694 21.9526Z" fill="#242A30"/>
<path d="M62.9816 10.0858H55.0157C54.3889 10.0858 53.8993 10.2603 53.5424 10.6049C53.1855 10.9495 53.0071 11.441 53.0071 12.0658V31.0903C53.0071 31.7427 53.1947 32.2573 53.5744 32.634C53.9542 33.0107 54.4529 33.2037 55.0798 33.2037C55.7066 33.2037 56.2419 33.0153 56.6171 32.634C56.9923 32.2527 57.1845 31.7381 57.1845 31.0903V24.098H62.9816C65.4203 24.098 67.3191 23.4824 68.6826 22.2466C70.0461 21.0107 70.7232 19.2879 70.7232 17.0781C70.7232 14.8683 70.0415 13.1501 68.6826 11.9234C67.3237 10.6968 65.4203 10.0858 62.9816 10.0858ZM62.4645 20.8821H58.0996C57.5963 20.8821 57.1845 20.4686 57.1845 19.9632V14.2573C57.1845 13.7519 57.5963 13.3384 58.0996 13.3384H62.4645C65.3333 13.3384 66.77 14.5972 66.77 17.1103C66.77 19.6233 65.3333 20.8821 62.4645 20.8821Z" fill="#242A30"/>
<path d="M87.6569 29.5651H79.4714C78.9681 29.5651 78.5563 29.1516 78.5563 28.6463V12.0062C78.5563 11.3767 78.3687 10.876 77.9889 10.4947C77.6092 10.1133 77.0967 9.92499 76.4516 9.92499C75.8064 9.92499 75.3214 10.1133 74.9463 10.4947C74.5711 10.876 74.3789 11.3767 74.3789 12.0062V31.0628C74.3789 31.6692 74.5528 32.147 74.8959 32.4916C75.2391 32.8408 75.7287 33.0107 76.3555 33.0107H87.6569C88.9517 33.0107 89.6014 32.4365 89.6014 31.2879C89.6014 30.1394 88.9517 29.5651 87.6569 29.5651Z" fill="#242A30"/>
<path d="M107.071 11.2251C105.442 10.2695 103.515 9.79633 101.292 9.79633C99.0681 9.79633 97.1372 10.2741 95.4946 11.2251C93.852 12.1807 92.5984 13.5406 91.7199 15.3047C90.846 17.0735 90.4067 19.1455 90.4067 21.5299C90.4067 23.9142 90.8506 25.9954 91.7336 27.7734C92.6167 29.5513 93.8749 30.9158 95.5084 31.8714C97.1372 32.827 99.0635 33.3002 101.287 33.3002C103.511 33.3002 105.405 32.8224 107.034 31.8714C108.663 30.9158 109.921 29.5513 110.804 27.7734C111.692 25.9954 112.131 23.9142 112.131 21.5299C112.131 19.1455 111.692 17.0689 110.818 15.3047C109.944 13.5406 108.69 12.1761 107.061 11.2251H107.071ZM106.197 27.7779C105.021 29.2297 103.383 29.9556 101.292 29.9556C99.2007 29.9556 97.5307 29.2297 96.3548 27.7779C95.1789 26.3262 94.5887 24.245 94.5887 21.5345C94.5887 18.8239 95.1789 16.7473 96.3548 15.3093C97.5307 13.8668 99.1779 13.1455 101.292 13.1455C103.406 13.1455 105.021 13.8668 106.197 15.3093C107.372 16.7519 107.963 18.8285 107.963 21.5345C107.963 24.2404 107.372 26.3262 106.197 27.7779Z" fill="#242A30"/>
<path d="M131.668 25.8576C131.256 25.2282 130.254 23.7259 129.714 23.1562C131.028 22.7657 132.089 22.1225 132.881 21.2221C133.883 20.0827 134.386 18.6264 134.386 16.8484C134.386 14.657 133.709 12.9847 132.364 11.8224C131.014 10.6646 129.046 10.0812 126.452 10.0812H118.358C117.731 10.0812 117.242 10.2558 116.885 10.6003C116.528 10.9449 116.35 11.4365 116.35 12.0613V31.0858C116.35 31.7381 116.537 32.2527 116.917 32.6294C117.292 33.0061 117.795 33.1991 118.422 33.1991C119.049 33.1991 119.543 33.0107 119.914 32.6294C120.28 32.2481 120.463 31.7336 120.463 31.0858V23.804H123.638C124.416 23.804 125.048 23.9464 125.533 24.2267C126.018 24.5069 126.475 24.9985 126.91 25.6922L131.215 32.2619C131.43 32.5881 131.696 32.8316 132.007 32.9924C132.318 33.1532 132.647 33.2358 132.995 33.2358C133.535 33.2358 134.006 33.0751 134.404 32.7489C134.802 32.4227 135.004 32.0138 135.004 31.513C135.004 31.1455 134.876 30.7642 134.615 30.3737L131.668 25.853V25.8576ZM125.871 20.5881H121.346C120.843 20.5881 120.431 20.1746 120.431 19.6692V14.2573C120.431 13.7519 120.843 13.3385 121.346 13.3385H125.871C127.445 13.3385 128.603 13.6279 129.335 14.2022C130.067 14.7764 130.437 15.6953 130.437 16.9495C130.437 18.2037 130.071 19.0996 129.335 19.6968C128.603 20.294 127.445 20.5927 125.871 20.5927V20.5881Z" fill="#242A30"/>
<path d="M150.318 11.2251C150.125 10.7933 149.828 10.4625 149.425 10.2328C149.027 10.0031 148.602 9.89282 148.144 9.89282C147.687 9.89282 147.266 10.0077 146.863 10.2328C146.465 10.4625 146.168 10.7933 145.971 11.2251L137.031 30.5069C136.902 30.7872 136.838 31.072 136.838 31.3522C136.838 31.853 137.044 32.2757 137.456 32.6202C137.868 32.9694 138.321 33.1394 138.815 33.1394C139.181 33.1394 139.515 33.0475 139.817 32.8637C140.119 32.68 140.357 32.3905 140.531 32L142.475 27.6447H153.873L155.817 32C155.991 32.3905 156.229 32.68 156.531 32.8637C156.833 33.0475 157.158 33.1394 157.501 33.1394C158.018 33.1394 158.476 32.9648 158.878 32.6202C159.276 32.2757 159.478 31.853 159.478 31.3522C159.478 31.072 159.414 30.7872 159.286 30.5069L150.313 11.2251H150.318ZM144.479 23.1011L147.348 16.6233C147.668 15.8974 148.698 15.8974 149.023 16.6233L151.892 23.1011C152.162 23.7075 151.718 24.3921 151.054 24.3921H145.321C144.658 24.3921 144.214 23.7075 144.484 23.1011H144.479Z" fill="#242A30"/>
<path d="M172.307 13.2098C173.277 13.2098 174.165 13.343 174.961 13.6141C175.762 13.8852 176.622 14.3676 177.551 15.0613C178.004 15.3645 178.448 15.5161 178.878 15.5161C179.244 15.5161 179.559 15.3553 179.816 15.0291C180.076 14.7029 180.205 14.3032 180.205 13.8254C180.205 13.4809 180.15 13.1868 180.044 12.948C179.935 12.7091 179.742 12.4839 179.463 12.2634C178.493 11.4594 177.381 10.8484 176.128 10.4257C174.874 10.0031 173.538 9.79175 172.111 9.79175C169.91 9.79175 167.984 10.2695 166.332 11.2205C164.68 12.1761 163.413 13.536 162.525 15.3002C161.642 17.0689 161.198 19.1409 161.198 21.5253C161.198 23.9097 161.642 25.9908 162.525 27.7688C163.408 29.5467 164.68 30.9112 166.332 31.8668C167.984 32.8224 169.91 33.2956 172.111 33.2956C173.534 33.2956 174.874 33.0842 176.128 32.6616C177.381 32.2389 178.493 31.6279 179.463 30.8239C179.742 30.608 179.939 30.3737 180.044 30.1256C180.154 29.8775 180.205 29.5881 180.205 29.2619C180.205 28.7841 180.076 28.3844 179.816 28.0582C179.555 27.732 179.244 27.5712 178.878 27.5712C178.64 27.5712 178.411 27.6172 178.196 27.6999C177.981 27.7872 177.766 27.8928 177.546 28.0261C176.553 28.6968 175.661 29.1746 174.874 29.4548C174.087 29.7351 173.227 29.8775 172.298 29.8775C170.052 29.8775 168.354 29.1746 167.197 27.7642C166.044 26.3538 165.462 24.2726 165.462 21.5207C165.462 18.7688 166.039 16.7198 167.197 15.3094C168.35 13.8989 170.052 13.196 172.298 13.196L172.307 13.2098Z" fill="#242A30"/>
<path d="M200.419 10.4947C200.03 10.1133 199.586 9.92499 199.092 9.92499C198.552 9.92499 198.09 10.1639 197.701 10.6417L191.808 18.0107C191.442 18.4702 190.751 18.4702 190.38 18.0107L184.455 10.6417C184.066 10.1639 183.604 9.92499 183.064 9.92499C182.565 9.92499 182.126 10.1133 181.737 10.4947C181.348 10.876 181.156 11.3216 181.156 11.8454C181.156 12.2772 181.316 12.6907 181.641 13.0812L188.994 22.0904V31.0996C188.994 31.7703 189.186 32.2941 189.575 32.6616C189.964 33.0291 190.472 33.2129 191.099 33.2129C191.726 33.2129 192.201 33.0291 192.59 32.6616C192.979 32.2941 193.171 31.7749 193.171 31.0996V22.0904L200.524 13.0812C200.849 12.6907 201.009 12.2772 201.009 11.8454C201.009 11.3262 200.817 10.876 200.428 10.4947H200.419Z" fill="#242A30"/>
</svg>
