<svg width="44" height="44" viewBox="0 0 44 44" fill="none" xmlns="http://www.w3.org/2000/svg">
<path d="M27.273 42C25.3713 42 23.4696 41.6461 21.71 40.918C18.1705 39.4618 15.1319 36.5629 13.1422 32.759C12.2489 31.051 11.5653 29.1865 11.0781 27.1314C8.58081 26.5802 6.09032 25.75 3.67428 24.634C2.23278 23.974 1.60339 22.2591 2.25985 20.8097C2.91631 19.3603 4.62175 18.7274 6.06325 19.3875C7.43708 20.0203 8.83798 20.5443 10.2389 20.9662C10.0562 17.2644 10.469 14.1137 11.5044 11.3578C12.9865 7.41095 15.8086 4.32836 19.2466 2.89253C24.4103 0.7422 30.7177 2.59312 33.9256 7.2C37.1267 11.7933 36.7071 18.394 32.9443 22.5381C31.1035 24.5728 28.5115 26.063 25.2495 26.9681C22.7454 27.6622 20.0452 27.9684 17.2704 27.8935C17.5411 28.6625 17.8592 29.3838 18.2179 30.0711C19.5782 32.6774 21.5882 34.6372 23.8824 35.5762C26.4338 36.631 29.4995 36.4132 31.8817 35.0114C34.2639 33.6096 35.9491 31.0306 36.2875 28.2746C36.4837 26.6959 37.9117 25.5731 39.4818 25.7636C41.0519 25.961 42.1685 27.3968 41.979 28.9755C41.4309 33.4735 38.6697 37.6925 34.7783 39.9858C32.5247 41.3127 29.8921 41.9932 27.2662 41.9932L27.273 42ZM16.0726 22.0686C18.7661 22.2864 21.3649 22.0686 23.7335 21.4153C25.9398 20.8029 27.6181 19.8774 28.7213 18.6594C30.65 16.5294 30.8869 12.8684 29.2424 10.5072C27.5978 8.14588 24.099 7.11834 21.4528 8.22073C19.497 9.03051 17.7915 10.9631 16.8779 13.3924C16.059 15.5836 15.7748 18.2307 16.0252 21.497C16.0387 21.6875 16.059 21.8849 16.0726 22.0686Z" fill="white"/>
</svg>
