<svg width="203" height="44" viewBox="0 0 203 44" fill="none" xmlns="http://www.w3.org/2000/svg">
<path d="M19.0799 35.9998C17.7942 35.9998 16.5085 35.7609 15.3189 35.2693C12.926 34.2861 10.8716 32.329 9.52641 29.7609C8.92245 28.6077 8.46033 27.3489 8.1309 25.9615C6.44256 25.5894 4.75879 25.0289 3.12536 24.2754C2.15078 23.8298 1.72527 22.6721 2.16909 21.6935C2.61291 20.7149 3.76592 20.2877 4.74049 20.7333C5.6693 21.1606 6.61642 21.5143 7.56354 21.7992C7.44 19.2999 7.71911 17.1728 8.41915 15.3122C9.42117 12.6476 11.3291 10.5664 13.6535 9.59702C17.1445 8.14526 21.4088 9.39488 23.5776 12.5051C25.7418 15.6062 25.4581 20.0626 22.9142 22.8604C21.6696 24.2341 19.9173 25.2402 17.7119 25.8512C16.019 26.3198 14.1934 26.5266 12.3174 26.476C12.5005 26.9952 12.7155 27.4822 12.958 27.9462C13.8777 29.7058 15.2366 31.0289 16.7876 31.6629C18.5126 32.375 20.5853 32.228 22.1958 31.2816C23.8064 30.3352 24.9457 28.594 25.1744 26.7333C25.3071 25.6675 26.2726 24.9094 27.3341 25.0381C28.3956 25.1713 29.1505 26.1407 29.0224 27.2065C28.6518 30.2433 26.785 33.0917 24.1541 34.6399C22.6305 35.5358 20.8506 35.9952 19.0754 35.9952L19.0799 35.9998ZM11.5076 22.5434C13.3286 22.6904 15.0856 22.5434 16.687 22.1024C18.1786 21.6889 19.3133 21.0641 20.0591 20.2417C21.3631 18.8038 21.5232 16.3321 20.4114 14.7379C19.2996 13.1437 16.9341 12.45 15.1451 13.1943C13.8228 13.741 12.6697 15.0457 12.0521 16.6858C11.4984 18.1652 11.3063 19.9523 11.4755 22.1575C11.4847 22.2862 11.4984 22.4194 11.5076 22.5434Z" fill="white"/>
<path d="M42.694 22.9526C42.4195 22.6126 42.4195 22.1256 42.694 21.7902L48.9898 14.0812C49.3147 13.7366 49.4748 13.3231 49.4748 12.8454C49.4748 12.3262 49.2735 11.876 48.8754 11.4947C48.4773 11.1133 48.0152 10.925 47.4982 10.925C46.9812 10.925 46.4962 11.1639 46.1073 11.6417L39.7931 19.4794L33.479 11.6417C33.0672 11.1639 32.5914 10.925 32.0561 10.925C31.5207 10.925 31.0861 11.1133 30.6972 11.4947C30.3082 11.876 30.1161 12.3216 30.1161 12.8454C30.1161 13.3231 30.2762 13.732 30.6011 14.0812L36.8923 21.7902C37.1668 22.1302 37.1668 22.6172 36.8923 22.9571L30.3082 31.0245C29.9834 31.415 29.8232 31.8285 29.8232 32.2604C29.8232 32.7795 30.0246 33.2297 30.4226 33.6111C30.8207 33.9924 31.2828 34.1807 31.7998 34.1807C32.3169 34.1807 32.8019 33.951 33.1908 33.4962L39.7977 25.3002L46.3726 33.4962C46.7844 33.974 47.2557 34.2129 47.7956 34.2129C48.3355 34.2129 48.7702 34.0199 49.1728 33.6294C49.5709 33.2389 49.7722 32.7841 49.7722 32.265C49.7722 31.8515 49.5983 31.4426 49.2552 31.0291L42.6986 22.9617L42.694 22.9526Z" fill="white"/>
<path d="M62.9816 11.0858H55.0157C54.3889 11.0858 53.8993 11.2603 53.5424 11.6049C53.1855 11.9495 53.0071 12.441 53.0071 13.0658V32.0903C53.0071 32.7427 53.1947 33.2573 53.5744 33.634C53.9542 34.0107 54.4529 34.2037 55.0798 34.2037C55.7066 34.2037 56.2419 34.0153 56.6171 33.634C56.9923 33.2527 57.1845 32.7381 57.1845 32.0903V25.098H62.9816C65.4203 25.098 67.3191 24.4824 68.6826 23.2466C70.0461 22.0107 70.7232 20.2879 70.7232 18.0781C70.7232 15.8683 70.0415 14.1501 68.6826 12.9234C67.3237 11.6968 65.4203 11.0858 62.9816 11.0858ZM62.4645 21.8821H58.0996C57.5963 21.8821 57.1845 21.4686 57.1845 20.9632V15.2573C57.1845 14.7519 57.5963 14.3384 58.0996 14.3384H62.4645C65.3333 14.3384 66.77 15.5972 66.77 18.1103C66.77 20.6233 65.3333 21.8821 62.4645 21.8821Z" fill="white"/>
<path d="M87.6569 30.5651H79.4714C78.9681 30.5651 78.5563 30.1516 78.5563 29.6463V13.0062C78.5563 12.3767 78.3687 11.876 77.9889 11.4947C77.6092 11.1133 77.0967 10.925 76.4516 10.925C75.8064 10.925 75.3214 11.1133 74.9463 11.4947C74.5711 11.876 74.3789 12.3767 74.3789 13.0062V32.0628C74.3789 32.6692 74.5528 33.147 74.8959 33.4916C75.2391 33.8408 75.7287 34.0107 76.3555 34.0107H87.6569C88.9517 34.0107 89.6014 33.4365 89.6014 32.2879C89.6014 31.1394 88.9517 30.5651 87.6569 30.5651Z" fill="white"/>
<path d="M107.071 12.2251C105.442 11.2695 103.515 10.7963 101.292 10.7963C99.0681 10.7963 97.1372 11.2741 95.4946 12.2251C93.852 13.1807 92.5984 14.5406 91.7199 16.3047C90.846 18.0735 90.4067 20.1455 90.4067 22.5299C90.4067 24.9142 90.8506 26.9954 91.7336 28.7734C92.6167 30.5513 93.8749 31.9158 95.5084 32.8714C97.1372 33.827 99.0635 34.3002 101.287 34.3002C103.511 34.3002 105.405 33.8224 107.034 32.8714C108.663 31.9158 109.921 30.5513 110.804 28.7734C111.692 26.9954 112.131 24.9142 112.131 22.5299C112.131 20.1455 111.692 18.0689 110.818 16.3047C109.944 14.5406 108.69 13.1761 107.061 12.2251H107.071ZM106.197 28.7779C105.021 30.2297 103.383 30.9556 101.292 30.9556C99.2007 30.9556 97.5307 30.2297 96.3548 28.7779C95.1789 27.3262 94.5887 25.245 94.5887 22.5345C94.5887 19.8239 95.1789 17.7473 96.3548 16.3093C97.5307 14.8668 99.1779 14.1455 101.292 14.1455C103.406 14.1455 105.021 14.8668 106.197 16.3093C107.372 17.7519 107.963 19.8285 107.963 22.5345C107.963 25.2404 107.372 27.3262 106.197 28.7779Z" fill="white"/>
<path d="M131.668 26.8576C131.256 26.2282 130.254 24.7259 129.714 24.1562C131.028 23.7657 132.089 23.1225 132.881 22.2221C133.883 21.0827 134.386 19.6264 134.386 17.8484C134.386 15.657 133.709 13.9847 132.364 12.8224C131.014 11.6646 129.046 11.0812 126.452 11.0812H118.358C117.731 11.0812 117.242 11.2558 116.885 11.6003C116.528 11.9449 116.35 12.4365 116.35 13.0613V32.0858C116.35 32.7381 116.537 33.2527 116.917 33.6294C117.292 34.0061 117.795 34.1991 118.422 34.1991C119.049 34.1991 119.543 34.0107 119.914 33.6294C120.28 33.2481 120.463 32.7336 120.463 32.0858V24.804H123.638C124.416 24.804 125.048 24.9464 125.533 25.2267C126.018 25.5069 126.475 25.9985 126.91 26.6922L131.215 33.2619C131.43 33.5881 131.696 33.8316 132.007 33.9924C132.318 34.1532 132.647 34.2358 132.995 34.2358C133.535 34.2358 134.006 34.0751 134.404 33.7489C134.802 33.4227 135.004 33.0138 135.004 32.513C135.004 32.1455 134.876 31.7642 134.615 31.3737L131.668 26.853V26.8576ZM125.871 21.5881H121.346C120.843 21.5881 120.431 21.1746 120.431 20.6692V15.2573C120.431 14.7519 120.843 14.3385 121.346 14.3385H125.871C127.445 14.3385 128.603 14.6279 129.335 15.2022C130.067 15.7764 130.437 16.6953 130.437 17.9495C130.437 19.2037 130.071 20.0996 129.335 20.6968C128.603 21.294 127.445 21.5927 125.871 21.5927V21.5881Z" fill="white"/>
<path d="M150.318 12.2251C150.125 11.7933 149.828 11.4625 149.425 11.2328C149.027 11.0031 148.602 10.8928 148.144 10.8928C147.687 10.8928 147.266 11.0077 146.863 11.2328C146.465 11.4625 146.168 11.7933 145.971 12.2251L137.031 31.5069C136.902 31.7872 136.838 32.072 136.838 32.3522C136.838 32.853 137.044 33.2757 137.456 33.6202C137.868 33.9694 138.321 34.1394 138.815 34.1394C139.181 34.1394 139.515 34.0475 139.817 33.8637C140.119 33.68 140.357 33.3905 140.531 33L142.475 28.6447H153.873L155.817 33C155.991 33.3905 156.229 33.68 156.531 33.8637C156.833 34.0475 157.158 34.1394 157.501 34.1394C158.018 34.1394 158.476 33.9648 158.878 33.6202C159.276 33.2757 159.478 32.853 159.478 32.3522C159.478 32.072 159.414 31.7872 159.286 31.5069L150.313 12.2251H150.318ZM144.479 24.1011L147.348 17.6233C147.668 16.8974 148.698 16.8974 149.023 17.6233L151.892 24.1011C152.162 24.7075 151.718 25.3921 151.054 25.3921H145.321C144.658 25.3921 144.214 24.7075 144.484 24.1011H144.479Z" fill="white"/>
<path d="M172.307 14.2098C173.277 14.2098 174.165 14.343 174.961 14.6141C175.762 14.8852 176.622 15.3676 177.551 16.0613C178.004 16.3645 178.448 16.5161 178.878 16.5161C179.244 16.5161 179.559 16.3553 179.816 16.0291C180.076 15.7029 180.205 15.3032 180.205 14.8254C180.205 14.4809 180.15 14.1868 180.044 13.948C179.935 13.7091 179.742 13.4839 179.463 13.2634C178.493 12.4594 177.381 11.8484 176.128 11.4257C174.874 11.0031 173.538 10.7917 172.111 10.7917C169.91 10.7917 167.984 11.2695 166.332 12.2205C164.68 13.1761 163.413 14.536 162.525 16.3002C161.642 18.0689 161.198 20.1409 161.198 22.5253C161.198 24.9097 161.642 26.9908 162.525 28.7688C163.408 30.5467 164.68 31.9112 166.332 32.8668C167.984 33.8224 169.91 34.2956 172.111 34.2956C173.534 34.2956 174.874 34.0842 176.128 33.6616C177.381 33.2389 178.493 32.6279 179.463 31.8239C179.742 31.608 179.939 31.3737 180.044 31.1256C180.154 30.8775 180.205 30.5881 180.205 30.2619C180.205 29.7841 180.076 29.3844 179.816 29.0582C179.555 28.732 179.244 28.5712 178.878 28.5712C178.64 28.5712 178.411 28.6172 178.196 28.6999C177.981 28.7872 177.766 28.8928 177.546 29.0261C176.553 29.6968 175.661 30.1746 174.874 30.4548C174.087 30.7351 173.227 30.8775 172.298 30.8775C170.052 30.8775 168.354 30.1746 167.197 28.7642C166.044 27.3538 165.462 25.2726 165.462 22.5207C165.462 19.7688 166.039 17.7198 167.197 16.3094C168.35 14.8989 170.052 14.196 172.298 14.196L172.307 14.2098Z" fill="white"/>
<path d="M200.419 11.4947C200.03 11.1133 199.586 10.925 199.092 10.925C198.552 10.925 198.09 11.1639 197.701 11.6417L191.808 19.0107C191.442 19.4702 190.751 19.4702 190.38 19.0107L184.455 11.6417C184.066 11.1639 183.604 10.925 183.064 10.925C182.565 10.925 182.126 11.1133 181.737 11.4947C181.348 11.876 181.156 12.3216 181.156 12.8454C181.156 13.2772 181.316 13.6907 181.641 14.0812L188.994 23.0904V32.0996C188.994 32.7703 189.186 33.2941 189.575 33.6616C189.964 34.0291 190.472 34.2129 191.099 34.2129C191.726 34.2129 192.201 34.0291 192.59 33.6616C192.979 33.2941 193.171 32.7749 193.171 32.0996V23.0904L200.524 14.0812C200.849 13.6907 201.009 13.2772 201.009 12.8454C201.009 12.3262 200.817 11.876 200.428 11.4947H200.419Z" fill="white"/>
</svg>
